<svg id="レイヤー_1" data-name="レイヤー 1" xmlns="http://www.w3.org/2000/svg" viewBox="0 0 32 32"><defs><style>.cls-1{fill:#744f43;}.cls-2{fill:#e99e86;}.cls-3{fill:#fff;}</style></defs><title>pak128d02</title><g id="_128double" data-name="128double"><path class="cls-1" d="M2.68,30.78A6.5,6.5,0,0,0,6.54,32H25.46A6.54,6.54,0,0,0,32,25.51V6.59a6.5,6.5,0,0,0-1.27-3.86Z"/><path class="cls-2" d="M29.32,1.32A6.5,6.5,0,0,0,25.46,0H6.54A6.54,6.54,0,0,0,0,6.59V25.51a6.5,6.5,0,0,0,1.27,3.86Z"/><path class="cls-3" d="M2.58,3.57H4v10H3.28v-9H2.15Z"/><path class="cls-3" d="M7.21,6.7H6.52a4.19,4.19,0,0,1,.72-2.43,2,2,0,0,1,1.7-.95,1.88,1.88,0,0,1,1.62.89,3.59,3.59,0,0,1,.62,2.1,4.29,4.29,0,0,1-.29,1.59,11.79,11.79,0,0,1-1.14,2L7.92,12.6h3.34v1H6.35L9.11,9.44a12.42,12.42,0,0,0,1.09-1.85,3.24,3.24,0,0,0,.25-1.27A2.36,2.36,0,0,0,10,4.87a1.35,1.35,0,0,0-1.11-.61,1.38,1.38,0,0,0-1.15.64A3.36,3.36,0,0,0,7.21,6.7Z"/><path class="cls-3" d="M15.25,8.08A3,3,0,0,1,16.3,9.23a3.29,3.29,0,0,1,.32,1.47,3.8,3.8,0,0,1-.55,2,2.13,2.13,0,0,1-1.91,1.08,2,2,0,0,1-1.82-.95,3.73,3.73,0,0,1-.62-2.09A3.41,3.41,0,0,1,12,9.27a3.14,3.14,0,0,1,1.08-1.19,2.41,2.41,0,0,1-.8-.94,2.79,2.79,0,0,1-.27-1.21,3,3,0,0,1,.28-1.27,2.39,2.39,0,0,1,.78-1,1.83,1.83,0,0,1,1.08-.36,1.72,1.72,0,0,1,1,.36,2.39,2.39,0,0,1,.75,1A3.18,3.18,0,0,1,16.29,6,2.72,2.72,0,0,1,16,7.16,2.52,2.52,0,0,1,15.25,8.08Zm-1,.5A1.52,1.52,0,0,0,13,9.25a2.51,2.51,0,0,0-.51,1.56,2.54,2.54,0,0,0,.22,1,1.73,1.73,0,0,0,.6.75,1.56,1.56,0,0,0,.9.26,1.47,1.47,0,0,0,1.26-.65,2.51,2.51,0,0,0,.47-1.51,2.39,2.39,0,0,0-.49-1.49A1.46,1.46,0,0,0,14.21,8.58Zm0-4.29a1.22,1.22,0,0,0-1,.49,1.79,1.79,0,0,0-.39,1.16,1.91,1.91,0,0,0,.42,1.21,1.23,1.23,0,0,0,1,.54,1.1,1.1,0,0,0,.68-.25,1.61,1.61,0,0,0,.5-.67,2.17,2.17,0,0,0,.18-.85A1.91,1.91,0,0,0,15.2,4.8,1.18,1.18,0,0,0,14.17,4.29Z"/></g></svg>