<svg id="レイヤー_1" data-name="レイヤー 1" xmlns="http://www.w3.org/2000/svg" viewBox="0 0 32 32"><defs><style>.cls-1{fill:#e99e86;}.cls-2{fill:#744f43;}.cls-3{fill:#af7765;}.cls-4{fill:#fff;}</style></defs><title>pak128h02</title><g id="_128half" data-name="128half"><path class="cls-1" d="M29.32,1.27A6.5,6.5,0,0,0,25.46,0H6.54A6.54,6.54,0,0,0,0,6.54V25.46a6.5,6.5,0,0,0,1.27,3.86Z"/><path class="cls-2" d="M6.54,32H25.46A6.54,6.54,0,0,0,32,25.46V17.12l-28.77,14A6.5,6.5,0,0,0,6.54,32Z"/><path class="cls-3" d="M30.73,2.68,5.06,28.35,32,14.88V6.54A6.5,6.5,0,0,0,30.73,2.68Z"/><path class="cls-4" d="M2.58,3.52H4v10H3.28v-9H2.15Z"/><path class="cls-4" d="M7.21,6.65H6.52a4.19,4.19,0,0,1,.72-2.43,2,2,0,0,1,1.7-.95,1.89,1.89,0,0,1,1.62.89,3.59,3.59,0,0,1,.62,2.1,4.29,4.29,0,0,1-.29,1.59,11.82,11.82,0,0,1-1.14,2l-1.8,2.68h3.34v1H6.35L9.11,9.39a12.46,12.46,0,0,0,1.09-1.85,3.24,3.24,0,0,0,.25-1.27A2.36,2.36,0,0,0,10,4.82a1.35,1.35,0,0,0-1.11-.61,1.38,1.38,0,0,0-1.15.64A3.36,3.36,0,0,0,7.21,6.65Z"/><path class="cls-4" d="M15.25,8A3,3,0,0,1,16.3,9.18a3.29,3.29,0,0,1,.32,1.47,3.79,3.79,0,0,1-.55,2,2.12,2.12,0,0,1-1.91,1.08,2,2,0,0,1-1.82-.95,3.74,3.74,0,0,1-.62-2.09A3.4,3.4,0,0,1,12,9.23,3.13,3.13,0,0,1,13.13,8a2.42,2.42,0,0,1-.8-.94,2.8,2.8,0,0,1-.27-1.21,3,3,0,0,1,.28-1.27,2.39,2.39,0,0,1,.78-1,1.82,1.82,0,0,1,1.08-.36,1.71,1.71,0,0,1,1,.36,2.39,2.39,0,0,1,.76,1,3.18,3.18,0,0,1,.27,1.3A2.73,2.73,0,0,1,16,7.12,2.52,2.52,0,0,1,15.25,8Zm-1,.5A1.52,1.52,0,0,0,13,9.21a2.64,2.64,0,0,0-.29,2.6,1.73,1.73,0,0,0,.6.75,1.55,1.55,0,0,0,.9.26,1.47,1.47,0,0,0,1.26-.65,2.5,2.5,0,0,0,.47-1.51,2.39,2.39,0,0,0-.49-1.49A1.46,1.46,0,0,0,14.21,8.54Zm0-4.29a1.22,1.22,0,0,0-1,.49,1.79,1.79,0,0,0-.39,1.16,1.91,1.91,0,0,0,.42,1.21,1.23,1.23,0,0,0,1,.54,1.1,1.1,0,0,0,.68-.25,1.61,1.61,0,0,0,.5-.67,2.18,2.18,0,0,0,.18-.85,1.9,1.9,0,0,0-.35-1.11A1.18,1.18,0,0,0,14.17,4.24Z"/></g></svg>