<svg id="レイヤー_1" data-name="レイヤー 1" xmlns="http://www.w3.org/2000/svg" viewBox="0 0 32 32"><defs><style>.cls-1{fill:#e99e86;}.cls-2{fill:#af7765;}.cls-3{fill:#744f43;}.cls-4{fill:#fff;}</style></defs><title>pak128h01</title><g id="_128half" data-name="128half"><rect class="cls-1" width="32" height="32" rx="6.54" ry="6.54"/><path class="cls-2" d="M2.68,30.73A6.5,6.5,0,0,0,6.54,32H25.46A6.54,6.54,0,0,0,32,25.46V6.54a6.5,6.5,0,0,0-1.27-3.86Z"/><path class="cls-3" d="M6.54,32H25.46A6.54,6.54,0,0,0,32,25.46V17.12l-28.77,14A6.5,6.5,0,0,0,6.54,32Z"/><path class="cls-4" d="M6.28,9.59h2V22.52h-1V10.85H5.66Z"/><path class="cls-4" d="M12.9,13.63h-1a5.06,5.06,0,0,1,1-3.14,3,3,0,0,1,2.42-1.23,2.77,2.77,0,0,1,2.31,1.15,4.34,4.34,0,0,1,.88,2.72,5.09,5.09,0,0,1-.42,2.06,15,15,0,0,1-1.63,2.61l-2.58,3.47h4.77v1.25h-7l4-5.34a15.8,15.8,0,0,0,1.56-2.39,3.83,3.83,0,0,0,.36-1.64,2.86,2.86,0,0,0-.65-1.88,2,2,0,0,0-1.59-.79,2,2,0,0,0-1.65.83A4.05,4.05,0,0,0,12.9,13.63Z"/><path class="cls-4" d="M24.39,15.42a4.11,4.11,0,0,1,1.5,1.49,3.91,3.91,0,0,1,.45,1.9,4.57,4.57,0,0,1-.78,2.64,3.12,3.12,0,0,1-2.74,1.4,3,3,0,0,1-2.6-1.23,4.52,4.52,0,0,1-.89-2.7A4.07,4.07,0,0,1,19.8,17a4.26,4.26,0,0,1,1.55-1.54,3.23,3.23,0,0,1-1.14-1.22,3.33,3.33,0,0,1-.38-1.56,3.63,3.63,0,0,1,.4-1.65,3.17,3.17,0,0,1,1.12-1.27,2.8,2.8,0,0,1,1.54-.46,2.62,2.62,0,0,1,1.5.47A3.19,3.19,0,0,1,25.47,11a3.78,3.78,0,0,1,.39,1.68,3.25,3.25,0,0,1-.37,1.56A3.37,3.37,0,0,1,24.39,15.42Zm-1.49.65a2.24,2.24,0,0,0-1.79.87,3,3,0,0,0-.72,2,3,3,0,0,0,.31,1.34,2.29,2.29,0,0,0,.86,1,2.39,2.39,0,0,0,1.29.34,2.18,2.18,0,0,0,1.8-.83,3,3,0,0,0,.67-2,2.9,2.9,0,0,0-.71-1.92A2.15,2.15,0,0,0,22.89,16.07Zm0-5.55a1.81,1.81,0,0,0-1.41.63,2.18,2.18,0,0,0-.56,1.5,2.32,2.32,0,0,0,.6,1.56,1.8,1.8,0,0,0,1.4.7,1.68,1.68,0,0,0,1-.32,2.12,2.12,0,0,0,.71-.87,2.58,2.58,0,0,0,.26-1.1,2.31,2.31,0,0,0-.51-1.44A1.74,1.74,0,0,0,22.84,10.52Z"/></g></svg>