<svg id="レイヤー_1" data-name="レイヤー 1" xmlns="http://www.w3.org/2000/svg" viewBox="0 0 32 32"><defs><style>.cls-1{fill:#49456e;}.cls-2{fill:#928adc;}.cls-3{fill:#fff;}</style></defs><title>pak64d02</title><g id="_64double" data-name="64double"><path class="cls-1" d="M2.68,30.73A6.5,6.5,0,0,0,6.54,32H25.46A6.54,6.54,0,0,0,32,25.46V6.54a6.5,6.5,0,0,0-1.27-3.86Z"/><path class="cls-2" d="M29.32,1.27A6.5,6.5,0,0,0,25.46,0H6.54A6.54,6.54,0,0,0,0,6.54V25.46a6.5,6.5,0,0,0,1.27,3.86Z"/><path class="cls-3" d="M6.14,3.27l.79.54L4.34,7.9a3,3,0,0,1,1-.18,2.53,2.53,0,0,1,1.93.86A3,3,0,0,1,8,10.69a3.18,3.18,0,0,1-.38,1.56,2.86,2.86,0,0,1-1.09,1.11A3,3,0,0,1,5,13.77a2.82,2.82,0,0,1-2.52-1.52,3.23,3.23,0,0,1-.38-1.54,3.89,3.89,0,0,1,.24-1.29A8.25,8.25,0,0,1,3.23,7.8Zm-1,5.32a1.9,1.9,0,0,0-1.42.62,2.17,2.17,0,0,0,0,3,2,2,0,0,0,2.84,0,2.17,2.17,0,0,0,0-3A1.9,1.9,0,0,0,5.09,8.59Z"/><path class="cls-3" d="M14.29,3.27h.19v7h1.16v1H14.49v2.32h-.95V11.19H9Zm-.75,7V6l-2.83,4.2Z"/></g></svg>