<svg id="レイヤー_1" data-name="レイヤー 1" xmlns="http://www.w3.org/2000/svg" viewBox="0 0 32 32"><defs><style>.cls-1{fill:#928adc;}.cls-2{fill:#6e68a5;}.cls-3{fill:#fff;}</style></defs><title>pak64d01</title><g id="_64double" data-name="64double"><rect class="cls-1" width="32" height="32" rx="6.54" ry="6.54"/><path class="cls-2" d="M2.68,30.73A6.5,6.5,0,0,0,6.54,32H25.46A6.54,6.54,0,0,0,32,25.46V6.54a6.5,6.5,0,0,0-1.27-3.86Z"/><path class="cls-3" d="M12.27,9.49l1.06.69-3.5,5.29a4.13,4.13,0,0,1,1.32-.24,3.5,3.5,0,0,1,2.61,1.11,3.79,3.79,0,0,1,1.07,2.74,4,4,0,0,1-.52,2,3.77,3.77,0,0,1-1.47,1.43,4.16,4.16,0,0,1-2.05.53,3.94,3.94,0,0,1-2-.51,3.67,3.67,0,0,1-1.43-1.45,4,4,0,0,1-.52-2,4.83,4.83,0,0,1,.32-1.67,10.37,10.37,0,0,1,1.15-2.11Zm-1.42,6.88A2.72,2.72,0,0,0,8.93,21a2.72,2.72,0,0,0,3.85,0,2.72,2.72,0,0,0-1.92-4.65Z"/><path class="cls-3" d="M23.3,9.49h.26v9h1.56v1.23H23.56v3H22.28v-3H16.09Zm-1,9V13.08l-3.83,5.43Z"/></g></svg>