<svg id="レイヤー_1" data-name="レイヤー 1" xmlns="http://www.w3.org/2000/svg" viewBox="0 0 32 32"><defs><style>.cls-1{fill:#928adc;}.cls-2{fill:#49456e;}.cls-3{fill:#6e68a5;}.cls-4{fill:#fff;}</style></defs><title>pak64h02</title><g id="_64half" data-name="64half"><path class="cls-1" d="M29.32,1.27A6.5,6.5,0,0,0,25.46,0H6.54A6.54,6.54,0,0,0,0,6.54V25.46a6.5,6.5,0,0,0,1.27,3.86Z"/><path class="cls-2" d="M6.54,32H25.46A6.54,6.54,0,0,0,32,25.46V17.12l-28.77,14A6.5,6.5,0,0,0,6.54,32Z"/><path class="cls-3" d="M30.73,2.68,5.06,28.35,32,14.88V6.54A6.5,6.5,0,0,0,30.73,2.68Z"/><path class="cls-4" d="M6.14,3.27l.79.54L4.34,7.9a3,3,0,0,1,1-.18,2.53,2.53,0,0,1,1.93.86A3,3,0,0,1,8,10.69a3.18,3.18,0,0,1-.38,1.56,2.86,2.86,0,0,1-1.09,1.11A3,3,0,0,1,5,13.77a2.82,2.82,0,0,1-1.46-.4,2.79,2.79,0,0,1-1.06-1.12,3.23,3.23,0,0,1-.38-1.54,3.89,3.89,0,0,1,.24-1.29A8.14,8.14,0,0,1,3.23,7.8Zm-1,5.32a1.9,1.9,0,0,0-1.42.62,2.17,2.17,0,0,0,0,3,2,2,0,0,0,2.84,0,2.17,2.17,0,0,0,0-3A1.9,1.9,0,0,0,5.09,8.59Z"/><path class="cls-4" d="M14.29,3.27h.19v7h1.16v1H14.49v2.32h-.95V11.19H9Zm-.76,7V6l-2.83,4.2Z"/></g></svg>