<svg id="レイヤー_1" data-name="レイヤー 1" xmlns="http://www.w3.org/2000/svg" viewBox="0 0 32 32"><defs><style>.cls-1{fill:#88af65;}.cls-2{fill:#66834c;}.cls-3{fill:#445833;}.cls-4{fill:#fff;}</style></defs><title>paketch01</title><g id="otherhalf"><rect class="cls-1" width="32" height="32" rx="6.54" ry="6.54"/><path class="cls-2" d="M2.68,30.73A6.5,6.5,0,0,0,6.54,32H25.46A6.54,6.54,0,0,0,32,25.46V6.54a6.5,6.5,0,0,0-1.27-3.86Z"/><path class="cls-3" d="M6.54,32H25.46A6.54,6.54,0,0,0,32,25.46V17.12l-28.77,14A6.5,6.5,0,0,0,6.54,32Z"/><path class="cls-4" d="M12.25,18.46,13,19a6,6,0,0,1-.81,1.63,3.42,3.42,0,0,1-1.06,1,2.82,2.82,0,0,1-1.35.35,2.93,2.93,0,0,1-2.65-1.48,6.49,6.49,0,0,1-1-3.45,6.52,6.52,0,0,1,.73-3.26,3,3,0,0,1,2.67-1.87,3.13,3.13,0,0,1,2.83,1.8,6.65,6.65,0,0,1,.82,3.25L7,17a4.85,4.85,0,0,0,.82,2.72,2.16,2.16,0,0,0,1.84,1,2.19,2.19,0,0,0,1-.27,2.63,2.63,0,0,0,.83-.69A5.9,5.9,0,0,0,12.25,18.46Zm-.05-2.57a5,5,0,0,0-.54-1.56,2.72,2.72,0,0,0-.91-.93,2.1,2.1,0,0,0-1.17-.34A2.15,2.15,0,0,0,7.86,14a4.69,4.69,0,0,0-.76,2Z"/><path class="cls-4" d="M15.42,8.45l.88,0L16.37,12l1.39,0,0,1.06-1.39,0,.17,8.5-.88,0-.17-8.5-1.2,0,0-1.06,1.2,0Z"/><path class="cls-4" d="M25.75,13.77l-.68.62a2.74,2.74,0,0,0-2.5-1.63,2.48,2.48,0,0,0-2,1.17,4.48,4.48,0,0,0-.77,2.75,5.12,5.12,0,0,0,.42,2A3.37,3.37,0,0,0,21.24,20a2.37,2.37,0,0,0,1.49.48,2.81,2.81,0,0,0,2.42-1.73l.71.63a3.94,3.94,0,0,1-1.28,1.63A3.29,3.29,0,0,1,20,20.27a5.73,5.73,0,0,1-1.14-3.49,6.61,6.61,0,0,1,.45-2.59,4.44,4.44,0,0,1,1.33-1.89,3.13,3.13,0,0,1,1.94-.71,3.1,3.1,0,0,1,1.32.26A3.4,3.4,0,0,1,25,12.6,4,4,0,0,1,25.75,13.77Z"/></g></svg>