<svg id="レイヤー_1" data-name="レイヤー 1" xmlns="http://www.w3.org/2000/svg" viewBox="0 0 32 32"><defs><style>.cls-1{fill:#88af65;}.cls-2{fill:#fff;}</style></defs><title>paketcn02</title><g id="レイヤー_8" data-name="レイヤー 8"><g id="otherboth"><rect class="cls-1" y="0.02" width="32" height="32" rx="6.54" ry="6.54"/><path class="cls-2" d="M12.24,18.61l.74.54a5.94,5.94,0,0,1-.84,1.62,3.41,3.41,0,0,1-1.08.94A2.83,2.83,0,0,1,9.71,22a2.93,2.93,0,0,1-2.62-1.53A6.49,6.49,0,0,1,6.14,17a6.51,6.51,0,0,1,.8-3.24A3,3,0,0,1,9.66,12a3.14,3.14,0,0,1,2.8,1.85,6.64,6.64,0,0,1,.75,3.27H7.05a4.83,4.83,0,0,0,.76,2.73,2.16,2.16,0,0,0,1.82,1.07,2.2,2.2,0,0,0,1-.25,2.64,2.64,0,0,0,.84-.67A5.9,5.9,0,0,0,12.24,18.61Zm0-2.58a5,5,0,0,0-.51-1.57,2.73,2.73,0,0,0-.89-.95,2.1,2.1,0,0,0-1.17-.36,2.16,2.16,0,0,0-1.73.91,4.67,4.67,0,0,0-.8,2Z"/><path class="cls-2" d="M15.62,8.67h.88v3.55h1.4v1.06H16.5v8.5h-.88v-8.5h-1.2V12.22h1.2Z"/><path class="cls-2" d="M25.86,14.2l-.7.61a2.74,2.74,0,0,0-2.47-1.68,2.49,2.49,0,0,0-2.08,1.12A4.48,4.48,0,0,0,19.79,17a5.11,5.11,0,0,0,.38,2,3.37,3.37,0,0,0,1,1.43,2.38,2.38,0,0,0,1.49.51,2.81,2.81,0,0,0,2.46-1.68l.7.64a4,4,0,0,1-1.32,1.6A3.3,3.3,0,0,1,20,20.58a5.72,5.72,0,0,1-1.07-3.51,6.6,6.6,0,0,1,.5-2.58,4.44,4.44,0,0,1,1.38-1.86,3.14,3.14,0,0,1,2-.67,3.11,3.11,0,0,1,1.31.29,3.42,3.42,0,0,1,1.07.76A4,4,0,0,1,25.86,14.2Z"/></g></g></svg>