<svg id="レイヤー_1" data-name="レイヤー 1" xmlns="http://www.w3.org/2000/svg" viewBox="0 0 32 32"><defs><style>.cls-1{fill:#445833;}.cls-2{fill:#88af65;}.cls-3{fill:#fff;}</style></defs><title>paketcd02</title><g id="otherdouble"><path class="cls-1" d="M2.68,30.75A6.5,6.5,0,0,0,6.54,32H25.46A6.54,6.54,0,0,0,32,25.47V6.56A6.5,6.5,0,0,0,30.73,2.7Z"/><path class="cls-2" d="M29.32,1.28A6.5,6.5,0,0,0,25.46,0H6.54A6.54,6.54,0,0,0,0,6.56V25.47a6.5,6.5,0,0,0,1.27,3.86Z"/><path class="cls-3" d="M6.8,10.47l.57.45a5.14,5.14,0,0,1-.64,1.34A2.68,2.68,0,0,1,5.9,13a2,2,0,0,1-1,.27,2.22,2.22,0,0,1-2-1.28,5.76,5.76,0,0,1-.72-2.88,5.8,5.8,0,0,1,.61-2.7A2.33,2.33,0,0,1,4.83,5,2.4,2.4,0,0,1,7,6.49a5.93,5.93,0,0,1,.58,2.72H2.84a4.29,4.29,0,0,0,.58,2.27,1.63,1.63,0,0,0,1.39.89,1.58,1.58,0,0,0,.78-.21,2.07,2.07,0,0,0,.64-.56A5,5,0,0,0,6.8,10.47Zm0-2.14A4.4,4.4,0,0,0,6.41,7a2.22,2.22,0,0,0-.68-.79,1.52,1.52,0,0,0-.89-.3,1.61,1.61,0,0,0-1.32.75A4.08,4.08,0,0,0,2.9,8.33Z"/><path class="cls-3" d="M9.38,2.2h.67v3h1.07V6H10.05v7.07H9.38V6H8.46V5.16h.92Z"/><path class="cls-3" d="M17.2,6.81l-.53.5a2.1,2.1,0,0,0-1.89-1.4,1.86,1.86,0,0,0-1.59.93,4,4,0,0,0-.63,2.27,4.59,4.59,0,0,0,.29,1.64,2.8,2.8,0,0,0,.8,1.19,1.72,1.72,0,0,0,1.13.42A2.15,2.15,0,0,0,16.67,11l.53.53a3.23,3.23,0,0,1-1,1.33,2.34,2.34,0,0,1-1.44.47,2.42,2.42,0,0,1-2.06-1.2,5.05,5.05,0,0,1-.82-2.92,5.9,5.9,0,0,1,.38-2.14,3.68,3.68,0,0,1,1-1.55A2.28,2.28,0,0,1,14.81,5a2.21,2.21,0,0,1,1,.24,2.62,2.62,0,0,1,.82.63A3.38,3.38,0,0,1,17.2,6.81Z"/></g></svg>