<svg id="レイヤー_1" data-name="レイヤー 1" xmlns="http://www.w3.org/2000/svg" viewBox="0 0 32 32"><defs><style>.cls-1{fill:#88af65;}.cls-2{fill:#445833;}.cls-3{fill:#66834c;}.cls-4{fill:#fff;}</style></defs><title>paketch02</title><g id="otherhalf"><path class="cls-1" d="M29.32,1.27A6.5,6.5,0,0,0,25.46,0H6.54A6.54,6.54,0,0,0,0,6.54V25.46a6.5,6.5,0,0,0,1.27,3.86Z"/><path class="cls-2" d="M6.54,32H25.46A6.54,6.54,0,0,0,32,25.46V17.12l-28.77,14A6.5,6.5,0,0,0,6.54,32Z"/><path class="cls-3" d="M30.73,2.68,5.06,28.35,32,14.88V6.54A6.5,6.5,0,0,0,30.73,2.68Z"/><path class="cls-4" d="M6.47,10.53,7,11a5.33,5.33,0,0,1-.57,1.36,2.56,2.56,0,0,1-.74.79,1.74,1.74,0,0,1-.95.29,2,2,0,0,1-1.87-1.24A6.15,6.15,0,0,1,2.15,9.3a6.22,6.22,0,0,1,.51-2.71Q3.34,5.06,4.54,5a2.23,2.23,0,0,1,2,1.5,6.35,6.35,0,0,1,.59,2.71l-4.34.09a4.57,4.57,0,0,0,.58,2.26,1.5,1.5,0,0,0,1.3.86,1.36,1.36,0,0,0,.71-.23A2,2,0,0,0,6,11.67,5.19,5.19,0,0,0,6.47,10.53Zm0-2.14A4.66,4.66,0,0,0,6,7.08,2.17,2.17,0,0,0,5.4,6.3,1.33,1.33,0,0,0,4.57,6a1.47,1.47,0,0,0-1.21.78,4.29,4.29,0,0,0-.53,1.66Z"/><path class="cls-4" d="M8.69,2.2h.62l.06,3,1,0,0,.89-1,0,.15,7.08H8.91L8.77,6l-.85,0,0-.89.85,0Z"/><path class="cls-4" d="M16,6.66l-.48.51q-.67-1.38-1.77-1.36a1.7,1.7,0,0,0-1.45,1,4.22,4.22,0,0,0-.54,2.29,4.92,4.92,0,0,0,.3,1.63,2.84,2.84,0,0,0,.76,1.18,1.53,1.53,0,0,0,1.06.4q1.06,0,1.71-1.43l.5.53a3.21,3.21,0,0,1-.9,1.35,2,2,0,0,1-1.32.5A2.21,2.21,0,0,1,12,12.06a5.38,5.38,0,0,1-.81-2.91A6.38,6.38,0,0,1,11.45,7a3.71,3.71,0,0,1,.94-1.57,2,2,0,0,1,1.37-.58,1.93,1.93,0,0,1,.93.22,2.44,2.44,0,0,1,.77.61A3.44,3.44,0,0,1,16,6.66Z"/></g></svg>