<svg id="レイヤー_1" data-name="レイヤー 1" xmlns="http://www.w3.org/2000/svg" viewBox="0 0 32 32"><defs><style>.cls-1{fill:#928adc;}.cls-1,.cls-2,.cls-3,.cls-4,.cls-5{stroke:#fff;stroke-miterlimit:10;stroke-width:0.5px;}.cls-2{fill:#c68570;}.cls-3{fill:#7bab4f;}.cls-4,.cls-6{fill:#fff;}.cls-5{fill:#5fbd97;}</style></defs><title>Ico01アートボード 1</title><path class="cls-1" d="M5.45,5.45A15,15,0,0,0,4,7.17l3.66,3.66c0,.07-.07.15-.12.22s-.2.37-.29.56S7,12,7,12.25s-.16.44-.24.67-.13.4-.19.6-.05.16-.07.24H1.27A15,15,0,0,0,1.08,16a15,15,0,0,0,.19,2.24H6.45c0,.08.05.16.07.24s.12.4.19.6.15.45.24.67.2.43.3.64.19.38.29.56.07.15.12.22L4,24.83a15,15,0,0,0,1.45,1.72A15,15,0,0,0,7.17,28l3.66-3.66L16,19.17,12.83,16,16,12.83,10.83,7.66,7.17,4A15,15,0,0,0,5.45,5.45Z"/><path class="cls-1" d="M20.39,7.26C20.18,7.15,20,7,19.75,7s-.44-.16-.67-.24-.4-.13-.6-.19l-.24-.07V1.27A15,15,0,0,0,16,1.08a15,15,0,0,0-2.24.19V6.45l-.24.07c-.2.05-.4.12-.6.19s-.45.15-.67.24-.43.2-.64.3-.38.19-.56.29l-.22.12L16,12.83l5.17-5.17-.22-.12C20.77,7.44,20.58,7.35,20.39,7.26Z"/><path class="cls-2" d="M10.83,24.34l.22.12c.18.11.37.2.55.29s.42.21.64.31.44.16.67.24.4.13.6.19l.24.07v5.18a15,15,0,0,0,2.24.19,15,15,0,0,0,2.24-.19V25.55l.24-.07c.2-.05.4-.12.6-.19s.45-.15.67-.24.43-.2.64-.3.38-.19.56-.29l.22-.12L16,19.17Z"/><path class="cls-1" d="M21.17,7.66,16,12.83,19.17,16,16,19.17l5.17,5.17L24.83,28a14.94,14.94,0,0,0,1.72-1.45A15,15,0,0,0,28,24.83l-3.66-3.66c0-.07.07-.15.12-.22s.2-.37.29-.55.21-.42.3-.64.16-.44.24-.67.13-.4.19-.6.05-.16.07-.24h5.18A15,15,0,0,0,30.92,16a15,15,0,0,0-.19-2.24H25.55c0-.08-.05-.16-.07-.24s-.12-.4-.19-.6-.15-.45-.24-.67-.2-.43-.3-.64-.19-.38-.29-.56-.07-.15-.12-.22L28,7.17a14.94,14.94,0,0,0-1.45-1.72A15,15,0,0,0,24.83,4Z"/><rect class="cls-3" x="11.25" y="11.25" width="9.5" height="9.5" rx="1.92" ry="1.92"/><rect class="cls-4" x="12.29" y="13.5" width="7.42" height="3.63"/><line class="cls-5" x1="12.69" y1="12.33" x2="19.31" y2="12.33"/><circle class="cls-6" cx="13.03" cy="18.84" r="0.74"/><circle class="cls-6" cx="18.97" cy="18.84" r="0.74"/></svg>